<svg xmlns="http://www.w3.org/2000/svg" height="24" viewBox="0 -960 960 960" width="24"><path d="M680-327.308q-44.23 0-75.192-30.961-30.961-30.962-30.961-75.192 0-44.23 30.961-75.192Q635.77-539.614 680-539.614q44.23 0 75.192 30.961 30.961 30.962 30.961 75.192 0 44.23-30.961 75.192Q724.23-327.308 680-327.308Zm0-59.999q19.308 0 32.731-13.423 13.423-13.423 13.423-32.731t-13.423-32.731Q699.308-479.615 680-479.615t-32.731 13.423q-13.423 13.423-13.423 32.731t13.423 32.731q13.423 13.423 32.731 13.423ZM453.847-69.233v-102.153q0-17.371 8.279-32.674 8.28-15.303 23.182-24.402 29.89-17.83 63.049-29.561 33.16-11.731 67.72-17.362L680-195l63.539-80.385q34.747 5.631 67.616 17.362 32.87 11.731 62.921 29.561 14.923 9.077 23.308 24.308 8.384 15.23 8.769 32.384v102.537H453.847Zm58.999-59.998h142.617l-62.078-79.078q-21.195 5.366-41.213 13.952t-39.326 19.125v46.001Zm191.691 0h141.617v-46.001q-18.692-11.154-38.71-19.231-20.018-8.077-41.214-13.462l-61.693 78.694Zm-49.074 0Zm49.074 0Zm-492.045-10.77q-30.106 0-51.298-21.241-21.193-21.24-21.193-51.067v-535.382q0-29.827 21.241-51.067 21.24-21.241 51.067-21.241h535.382q29.827 0 51.067 21.241 21.241 21.24 21.241 51.067v173.844q-12.539-14.231-26.731-26.653-14.192-12.423-33.268-17.269v-129.922q0-5.385-3.462-8.847-3.462-3.462-8.847-3.462H212.309q-5.385 0-8.847 3.462-3.462 3.462-3.462 8.847v535.382q0 5.385 3.462 8.847 3.462 3.462 8.847 3.462h149.845q-1.847 7.154-2.77 14.307-.923 7.154-.923 14.307v31.385H212.492Zm77.509-465.384h288.462q20.23-14.23 43.73-21.153 23.499-6.923 47.806-7.692v-31.154H290.001v59.999Zm0 155.384h190.384q.769-15.999 4.307-30.807 3.539-14.807 9.231-29.191H290.001v59.998Zm0 155.385h124.922q10.615-8.616 22.346-15.808t23.961-12.808v-31.383H290.001v59.999ZM200-200V-760-618.384-635v435Zm480-233.461Z"/></svg>